<mxfile host="Electron" agent="Mozilla/5.0 (Windows NT 10.0; Win64; x64) AppleWebKit/537.36 (KHTML, like Gecko) draw.io/26.0.16 Chrome/132.0.6834.196 Electron/34.2.0 Safari/537.36" version="26.0.16">
  <diagram name="StudyZone" id="fjfG4alf1tpYBAEEfAXu">
    <mxGraphModel dx="3472" dy="1464" grid="1" gridSize="10" guides="1" tooltips="1" connect="1" arrows="1" fold="1" page="1" pageScale="1" pageWidth="827" pageHeight="1169" math="0" shadow="0">
      <root>
        <mxCell id="0" />
        <mxCell id="1" parent="0" />
        <mxCell id="VLzLnDdIR_5NTedfnOc6-1" value="Login" style="rounded=0;whiteSpace=wrap;html=1;" parent="1" vertex="1">
          <mxGeometry x="360" y="40" width="120" height="40" as="geometry" />
        </mxCell>
        <mxCell id="VLzLnDdIR_5NTedfnOc6-3" value="Lehrer" style="rounded=0;whiteSpace=wrap;html=1;" parent="1" vertex="1">
          <mxGeometry x="-320" y="160" width="120" height="40" as="geometry" />
        </mxCell>
        <mxCell id="VLzLnDdIR_5NTedfnOc6-4" value="SchÃ¼ler" style="rounded=0;whiteSpace=wrap;html=1;" parent="1" vertex="1">
          <mxGeometry x="1160" y="160" width="120" height="40" as="geometry" />
        </mxCell>
        <mxCell id="VLzLnDdIR_5NTedfnOc6-6" value="" style="endArrow=classic;html=1;rounded=0;exitX=0.5;exitY=1;exitDx=0;exitDy=0;entryX=0.5;entryY=0;entryDx=0;entryDy=0;" parent="1" source="VLzLnDdIR_5NTedfnOc6-1" target="VLzLnDdIR_5NTedfnOc6-3" edge="1">
          <mxGeometry width="50" height="50" relative="1" as="geometry">
            <mxPoint x="480" y="360" as="sourcePoint" />
            <mxPoint x="530" y="310" as="targetPoint" />
          </mxGeometry>
        </mxCell>
        <mxCell id="VLzLnDdIR_5NTedfnOc6-7" value="" style="endArrow=classic;html=1;rounded=0;exitX=0.5;exitY=1;exitDx=0;exitDy=0;entryX=0.5;entryY=0;entryDx=0;entryDy=0;" parent="1" source="VLzLnDdIR_5NTedfnOc6-1" target="VLzLnDdIR_5NTedfnOc6-4" edge="1">
          <mxGeometry width="50" height="50" relative="1" as="geometry">
            <mxPoint x="520" y="120" as="sourcePoint" />
            <mxPoint x="570" y="70" as="targetPoint" />
          </mxGeometry>
        </mxCell>
        <mxCell id="VLzLnDdIR_5NTedfnOc6-8" value="Admin" style="rounded=0;whiteSpace=wrap;html=1;" parent="1" vertex="1">
          <mxGeometry x="360" y="160" width="120" height="40" as="geometry" />
        </mxCell>
        <mxCell id="VLzLnDdIR_5NTedfnOc6-9" value="" style="endArrow=classic;html=1;rounded=0;entryX=0.5;entryY=0;entryDx=0;entryDy=0;" parent="1" target="VLzLnDdIR_5NTedfnOc6-8" edge="1">
          <mxGeometry width="50" height="50" relative="1" as="geometry">
            <mxPoint x="420" y="80" as="sourcePoint" />
            <mxPoint x="460" y="90" as="targetPoint" />
          </mxGeometry>
        </mxCell>
        <mxCell id="VLzLnDdIR_5NTedfnOc6-10" value="Aufgaben" style="rounded=1;whiteSpace=wrap;html=1;" parent="1" vertex="1">
          <mxGeometry x="-540" y="240" width="80" height="40" as="geometry" />
        </mxCell>
        <mxCell id="VLzLnDdIR_5NTedfnOc6-11" value="Klasse" style="rounded=1;whiteSpace=wrap;html=1;" parent="1" vertex="1">
          <mxGeometry x="-180" y="240" width="80" height="40" as="geometry" />
        </mxCell>
        <mxCell id="VLzLnDdIR_5NTedfnOc6-12" value="Profil" style="rounded=1;whiteSpace=wrap;html=1;" parent="1" vertex="1">
          <mxGeometry y="240" width="80" height="40" as="geometry" />
        </mxCell>
        <mxCell id="VLzLnDdIR_5NTedfnOc6-13" value="" style="endArrow=classic;html=1;rounded=0;exitX=0.5;exitY=1;exitDx=0;exitDy=0;entryX=0.5;entryY=0;entryDx=0;entryDy=0;" parent="1" source="VLzLnDdIR_5NTedfnOc6-3" target="VLzLnDdIR_5NTedfnOc6-10" edge="1">
          <mxGeometry width="50" height="50" relative="1" as="geometry">
            <mxPoint x="-280" y="210" as="sourcePoint" />
            <mxPoint x="-230" y="160" as="targetPoint" />
          </mxGeometry>
        </mxCell>
        <mxCell id="VLzLnDdIR_5NTedfnOc6-14" value="" style="endArrow=classic;html=1;rounded=0;entryX=0.5;entryY=0;entryDx=0;entryDy=0;exitX=0.5;exitY=1;exitDx=0;exitDy=0;" parent="1" source="VLzLnDdIR_5NTedfnOc6-3" target="VLzLnDdIR_5NTedfnOc6-11" edge="1">
          <mxGeometry width="50" height="50" relative="1" as="geometry">
            <mxPoint x="-110" y="220" as="sourcePoint" />
            <mxPoint x="-230" y="180" as="targetPoint" />
          </mxGeometry>
        </mxCell>
        <mxCell id="VLzLnDdIR_5NTedfnOc6-15" value="" style="endArrow=classic;html=1;rounded=0;exitX=0.5;exitY=1;exitDx=0;exitDy=0;entryX=0.5;entryY=0;entryDx=0;entryDy=0;" parent="1" source="VLzLnDdIR_5NTedfnOc6-3" target="VLzLnDdIR_5NTedfnOc6-12" edge="1">
          <mxGeometry width="50" height="50" relative="1" as="geometry">
            <mxPoint x="10" y="210" as="sourcePoint" />
            <mxPoint x="60" y="160" as="targetPoint" />
          </mxGeometry>
        </mxCell>
        <mxCell id="VLzLnDdIR_5NTedfnOc6-16" value="Benutzer" style="rounded=1;whiteSpace=wrap;html=1;" parent="1" vertex="1">
          <mxGeometry x="560" y="240" width="80" height="40" as="geometry" />
        </mxCell>
        <mxCell id="VLzLnDdIR_5NTedfnOc6-17" value="Aufgaben" style="rounded=1;whiteSpace=wrap;html=1;" parent="1" vertex="1">
          <mxGeometry x="220" y="240" width="80" height="40" as="geometry" />
        </mxCell>
        <mxCell id="VLzLnDdIR_5NTedfnOc6-18" value="" style="endArrow=classic;html=1;rounded=0;exitX=0.5;exitY=1;exitDx=0;exitDy=0;entryX=0.5;entryY=0;entryDx=0;entryDy=0;" parent="1" source="VLzLnDdIR_5NTedfnOc6-8" target="VLzLnDdIR_5NTedfnOc6-17" edge="1">
          <mxGeometry width="50" height="50" relative="1" as="geometry">
            <mxPoint x="270" y="370" as="sourcePoint" />
            <mxPoint x="320" y="320" as="targetPoint" />
          </mxGeometry>
        </mxCell>
        <mxCell id="VLzLnDdIR_5NTedfnOc6-19" value="" style="endArrow=classic;html=1;rounded=0;exitX=0.5;exitY=1;exitDx=0;exitDy=0;entryX=0.5;entryY=0;entryDx=0;entryDy=0;" parent="1" source="VLzLnDdIR_5NTedfnOc6-8" target="VLzLnDdIR_5NTedfnOc6-16" edge="1">
          <mxGeometry width="50" height="50" relative="1" as="geometry">
            <mxPoint x="400" y="420" as="sourcePoint" />
            <mxPoint x="450" y="370" as="targetPoint" />
          </mxGeometry>
        </mxCell>
        <mxCell id="VLzLnDdIR_5NTedfnOc6-20" value="Aufgaben&lt;div&gt;bearbeiten&lt;/div&gt;" style="rounded=1;whiteSpace=wrap;html=1;" parent="1" vertex="1">
          <mxGeometry x="840" y="240" width="80" height="40" as="geometry" />
        </mxCell>
        <mxCell id="VLzLnDdIR_5NTedfnOc6-21" value="Scoreboard" style="rounded=1;whiteSpace=wrap;html=1;" parent="1" vertex="1">
          <mxGeometry x="1180" y="240" width="80" height="40" as="geometry" />
        </mxCell>
        <mxCell id="VLzLnDdIR_5NTedfnOc6-22" value="Profil" style="rounded=1;whiteSpace=wrap;html=1;" parent="1" vertex="1">
          <mxGeometry x="1480" y="240" width="80" height="40" as="geometry" />
        </mxCell>
        <mxCell id="VLzLnDdIR_5NTedfnOc6-24" value="Bild" style="rounded=1;whiteSpace=wrap;html=1;" parent="1" vertex="1">
          <mxGeometry x="-600" y="320" width="80" height="40" as="geometry" />
        </mxCell>
        <mxCell id="VLzLnDdIR_5NTedfnOc6-25" value="ABCD" style="rounded=1;whiteSpace=wrap;html=1;" parent="1" vertex="1">
          <mxGeometry x="-480" y="320" width="80" height="40" as="geometry" />
        </mxCell>
        <mxCell id="VLzLnDdIR_5NTedfnOc6-26" value="Text" style="rounded=1;whiteSpace=wrap;html=1;" parent="1" vertex="1">
          <mxGeometry x="-360" y="320" width="80" height="40" as="geometry" />
        </mxCell>
        <mxCell id="VLzLnDdIR_5NTedfnOc6-27" value="" style="endArrow=classic;html=1;rounded=0;exitX=0.5;exitY=1;exitDx=0;exitDy=0;entryX=0.5;entryY=0;entryDx=0;entryDy=0;" parent="1" source="VLzLnDdIR_5NTedfnOc6-10" target="VLzLnDdIR_5NTedfnOc6-24" edge="1">
          <mxGeometry width="50" height="50" relative="1" as="geometry">
            <mxPoint x="-550" y="280" as="sourcePoint" />
            <mxPoint x="-500" y="230" as="targetPoint" />
          </mxGeometry>
        </mxCell>
        <mxCell id="VLzLnDdIR_5NTedfnOc6-30" value="" style="endArrow=classic;html=1;rounded=0;exitX=0.5;exitY=1;exitDx=0;exitDy=0;entryX=0.5;entryY=0;entryDx=0;entryDy=0;" parent="1" source="VLzLnDdIR_5NTedfnOc6-10" target="VLzLnDdIR_5NTedfnOc6-25" edge="1">
          <mxGeometry width="50" height="50" relative="1" as="geometry">
            <mxPoint x="-540" y="200" as="sourcePoint" />
            <mxPoint x="-490" y="150" as="targetPoint" />
          </mxGeometry>
        </mxCell>
        <mxCell id="VLzLnDdIR_5NTedfnOc6-31" value="" style="endArrow=classic;html=1;rounded=0;entryX=0.5;entryY=0;entryDx=0;entryDy=0;exitX=0.5;exitY=1;exitDx=0;exitDy=0;" parent="1" source="VLzLnDdIR_5NTedfnOc6-10" target="VLzLnDdIR_5NTedfnOc6-26" edge="1">
          <mxGeometry width="50" height="50" relative="1" as="geometry">
            <mxPoint x="-520" y="210" as="sourcePoint" />
            <mxPoint x="-470" y="160" as="targetPoint" />
          </mxGeometry>
        </mxCell>
        <mxCell id="VLzLnDdIR_5NTedfnOc6-32" value="" style="endArrow=classic;html=1;rounded=0;exitX=0.5;exitY=1;exitDx=0;exitDy=0;entryX=0.5;entryY=0;entryDx=0;entryDy=0;" parent="1" source="VLzLnDdIR_5NTedfnOc6-4" target="VLzLnDdIR_5NTedfnOc6-22" edge="1">
          <mxGeometry width="50" height="50" relative="1" as="geometry">
            <mxPoint x="1240" y="380" as="sourcePoint" />
            <mxPoint x="1290" y="330" as="targetPoint" />
          </mxGeometry>
        </mxCell>
        <mxCell id="VLzLnDdIR_5NTedfnOc6-33" value="" style="endArrow=classic;html=1;rounded=0;exitX=0.5;exitY=1;exitDx=0;exitDy=0;entryX=0.5;entryY=0;entryDx=0;entryDy=0;" parent="1" source="VLzLnDdIR_5NTedfnOc6-4" target="VLzLnDdIR_5NTedfnOc6-21" edge="1">
          <mxGeometry width="50" height="50" relative="1" as="geometry">
            <mxPoint x="1170" y="370" as="sourcePoint" />
            <mxPoint x="1220" y="320" as="targetPoint" />
          </mxGeometry>
        </mxCell>
        <mxCell id="VLzLnDdIR_5NTedfnOc6-34" value="" style="endArrow=classic;html=1;rounded=0;exitX=0.5;exitY=1;exitDx=0;exitDy=0;entryX=0.5;entryY=0;entryDx=0;entryDy=0;" parent="1" source="VLzLnDdIR_5NTedfnOc6-4" target="VLzLnDdIR_5NTedfnOc6-20" edge="1">
          <mxGeometry width="50" height="50" relative="1" as="geometry">
            <mxPoint x="1290" y="390" as="sourcePoint" />
            <mxPoint x="1340" y="340" as="targetPoint" />
          </mxGeometry>
        </mxCell>
        <mxCell id="VLzLnDdIR_5NTedfnOc6-35" value="LÃ¶schen" style="rounded=1;whiteSpace=wrap;html=1;" parent="1" vertex="1">
          <mxGeometry x="-720" y="320" width="80" height="40" as="geometry" />
        </mxCell>
        <mxCell id="VLzLnDdIR_5NTedfnOc6-36" value="" style="endArrow=classic;html=1;rounded=0;entryX=0.5;entryY=0;entryDx=0;entryDy=0;" parent="1" target="VLzLnDdIR_5NTedfnOc6-35" edge="1">
          <mxGeometry width="50" height="50" relative="1" as="geometry">
            <mxPoint x="-500" y="280" as="sourcePoint" />
            <mxPoint x="-200" y="350" as="targetPoint" />
          </mxGeometry>
        </mxCell>
        <mxCell id="VLzLnDdIR_5NTedfnOc6-37" value="HinzufÃ¼gen" style="rounded=1;whiteSpace=wrap;html=1;" parent="1" vertex="1">
          <mxGeometry x="-120" y="320" width="80" height="40" as="geometry" />
        </mxCell>
        <mxCell id="VLzLnDdIR_5NTedfnOc6-38" value="Entfernen" style="rounded=1;whiteSpace=wrap;html=1;" parent="1" vertex="1">
          <mxGeometry x="-240" y="320" width="80" height="40" as="geometry" />
        </mxCell>
        <mxCell id="VLzLnDdIR_5NTedfnOc6-39" value="" style="endArrow=classic;html=1;rounded=0;exitX=0.5;exitY=1;exitDx=0;exitDy=0;entryX=0.5;entryY=0;entryDx=0;entryDy=0;" parent="1" source="VLzLnDdIR_5NTedfnOc6-11" target="VLzLnDdIR_5NTedfnOc6-37" edge="1">
          <mxGeometry width="50" height="50" relative="1" as="geometry">
            <mxPoint x="-390" y="290" as="sourcePoint" />
            <mxPoint x="-340" y="240" as="targetPoint" />
          </mxGeometry>
        </mxCell>
        <mxCell id="VLzLnDdIR_5NTedfnOc6-40" value="" style="endArrow=classic;html=1;rounded=0;exitX=0.5;exitY=1;exitDx=0;exitDy=0;entryX=0.5;entryY=0;entryDx=0;entryDy=0;" parent="1" source="VLzLnDdIR_5NTedfnOc6-11" target="VLzLnDdIR_5NTedfnOc6-38" edge="1">
          <mxGeometry width="50" height="50" relative="1" as="geometry">
            <mxPoint x="-260" y="310" as="sourcePoint" />
            <mxPoint x="-210" y="260" as="targetPoint" />
          </mxGeometry>
        </mxCell>
        <mxCell id="VLzLnDdIR_5NTedfnOc6-41" value="Bearbeiten" style="rounded=1;whiteSpace=wrap;html=1;" parent="1" vertex="1">
          <mxGeometry y="320" width="80" height="40" as="geometry" />
        </mxCell>
        <mxCell id="VLzLnDdIR_5NTedfnOc6-42" value="" style="endArrow=classic;html=1;rounded=0;exitX=0.5;exitY=1;exitDx=0;exitDy=0;entryX=0.5;entryY=0;entryDx=0;entryDy=0;" parent="1" source="VLzLnDdIR_5NTedfnOc6-12" target="VLzLnDdIR_5NTedfnOc6-41" edge="1">
          <mxGeometry width="50" height="50" relative="1" as="geometry">
            <mxPoint x="20" y="470" as="sourcePoint" />
            <mxPoint x="70" y="420" as="targetPoint" />
          </mxGeometry>
        </mxCell>
        <mxCell id="VLzLnDdIR_5NTedfnOc6-43" value="Klasse" style="rounded=1;whiteSpace=wrap;html=1;" parent="1" vertex="1">
          <mxGeometry x="1360" y="320" width="80" height="40" as="geometry" />
        </mxCell>
        <mxCell id="VLzLnDdIR_5NTedfnOc6-44" value="Jahrgang" style="rounded=1;whiteSpace=wrap;html=1;" parent="1" vertex="1">
          <mxGeometry x="1240" y="320" width="80" height="40" as="geometry" />
        </mxCell>
        <mxCell id="VLzLnDdIR_5NTedfnOc6-45" value="Schule" style="rounded=1;whiteSpace=wrap;html=1;" parent="1" vertex="1">
          <mxGeometry x="1120" y="320" width="80" height="40" as="geometry" />
        </mxCell>
        <mxCell id="VLzLnDdIR_5NTedfnOc6-46" value="Deutschlandweit&lt;div&gt;Weltweit&lt;/div&gt;" style="rounded=1;whiteSpace=wrap;html=1;" parent="1" vertex="1">
          <mxGeometry x="960" y="320" width="120" height="40" as="geometry" />
        </mxCell>
        <mxCell id="VLzLnDdIR_5NTedfnOc6-47" value="" style="endArrow=classic;html=1;rounded=0;exitX=0.5;exitY=1;exitDx=0;exitDy=0;entryX=0.5;entryY=0;entryDx=0;entryDy=0;" parent="1" source="VLzLnDdIR_5NTedfnOc6-21" target="VLzLnDdIR_5NTedfnOc6-45" edge="1">
          <mxGeometry width="50" height="50" relative="1" as="geometry">
            <mxPoint x="800" y="300" as="sourcePoint" />
            <mxPoint x="850" y="250" as="targetPoint" />
          </mxGeometry>
        </mxCell>
        <mxCell id="VLzLnDdIR_5NTedfnOc6-48" value="" style="endArrow=classic;html=1;rounded=0;exitX=0.5;exitY=1;exitDx=0;exitDy=0;entryX=0.5;entryY=0;entryDx=0;entryDy=0;" parent="1" source="VLzLnDdIR_5NTedfnOc6-21" target="VLzLnDdIR_5NTedfnOc6-46" edge="1">
          <mxGeometry width="50" height="50" relative="1" as="geometry">
            <mxPoint x="170" y="290" as="sourcePoint" />
            <mxPoint x="220" y="240" as="targetPoint" />
          </mxGeometry>
        </mxCell>
        <mxCell id="VLzLnDdIR_5NTedfnOc6-49" value="" style="endArrow=classic;html=1;rounded=0;exitX=0.5;exitY=1;exitDx=0;exitDy=0;entryX=0.5;entryY=0;entryDx=0;entryDy=0;" parent="1" source="VLzLnDdIR_5NTedfnOc6-21" target="VLzLnDdIR_5NTedfnOc6-44" edge="1">
          <mxGeometry width="50" height="50" relative="1" as="geometry">
            <mxPoint x="980" y="360" as="sourcePoint" />
            <mxPoint x="1030" y="310" as="targetPoint" />
          </mxGeometry>
        </mxCell>
        <mxCell id="VLzLnDdIR_5NTedfnOc6-50" value="" style="endArrow=classic;html=1;rounded=0;exitX=0.5;exitY=1;exitDx=0;exitDy=0;entryX=0.5;entryY=0;entryDx=0;entryDy=0;" parent="1" source="VLzLnDdIR_5NTedfnOc6-21" target="VLzLnDdIR_5NTedfnOc6-43" edge="1">
          <mxGeometry width="50" height="50" relative="1" as="geometry">
            <mxPoint x="1120" y="300" as="sourcePoint" />
            <mxPoint x="1170" y="250" as="targetPoint" />
          </mxGeometry>
        </mxCell>
        <mxCell id="VLzLnDdIR_5NTedfnOc6-51" value="Bearbeiten" style="rounded=1;whiteSpace=wrap;html=1;" parent="1" vertex="1">
          <mxGeometry x="1480" y="320" width="80" height="40" as="geometry" />
        </mxCell>
        <mxCell id="VLzLnDdIR_5NTedfnOc6-52" value="" style="endArrow=classic;html=1;rounded=0;exitX=0.5;exitY=1;exitDx=0;exitDy=0;entryX=0.5;entryY=0;entryDx=0;entryDy=0;" parent="1" source="VLzLnDdIR_5NTedfnOc6-22" target="VLzLnDdIR_5NTedfnOc6-51" edge="1">
          <mxGeometry width="50" height="50" relative="1" as="geometry">
            <mxPoint x="1650" y="290" as="sourcePoint" />
            <mxPoint x="1700" y="240" as="targetPoint" />
          </mxGeometry>
        </mxCell>
        <mxCell id="VLzLnDdIR_5NTedfnOc6-54" value="LÃ¶schen" style="rounded=1;whiteSpace=wrap;html=1;" parent="1" vertex="1">
          <mxGeometry x="140" y="320" width="80" height="40" as="geometry" />
        </mxCell>
        <mxCell id="VLzLnDdIR_5NTedfnOc6-55" value="Bearbeiten" style="rounded=1;whiteSpace=wrap;html=1;" parent="1" vertex="1">
          <mxGeometry x="300" y="320" width="80" height="40" as="geometry" />
        </mxCell>
        <mxCell id="VLzLnDdIR_5NTedfnOc6-56" value="" style="endArrow=classic;html=1;rounded=0;exitX=0.5;exitY=1;exitDx=0;exitDy=0;entryX=0.5;entryY=0;entryDx=0;entryDy=0;" parent="1" source="VLzLnDdIR_5NTedfnOc6-17" target="VLzLnDdIR_5NTedfnOc6-54" edge="1">
          <mxGeometry width="50" height="50" relative="1" as="geometry">
            <mxPoint x="160" y="430" as="sourcePoint" />
            <mxPoint x="210" y="380" as="targetPoint" />
          </mxGeometry>
        </mxCell>
        <mxCell id="VLzLnDdIR_5NTedfnOc6-57" value="" style="endArrow=classic;html=1;rounded=0;entryX=0.5;entryY=0;entryDx=0;entryDy=0;exitX=0.5;exitY=1;exitDx=0;exitDy=0;" parent="1" source="VLzLnDdIR_5NTedfnOc6-17" target="VLzLnDdIR_5NTedfnOc6-55" edge="1">
          <mxGeometry width="50" height="50" relative="1" as="geometry">
            <mxPoint x="260" y="460" as="sourcePoint" />
            <mxPoint x="386" y="324" as="targetPoint" />
          </mxGeometry>
        </mxCell>
        <mxCell id="VLzLnDdIR_5NTedfnOc6-58" value="LÃ¶schen" style="rounded=1;whiteSpace=wrap;html=1;" parent="1" vertex="1">
          <mxGeometry x="420" y="320" width="80" height="40" as="geometry" />
        </mxCell>
        <mxCell id="VLzLnDdIR_5NTedfnOc6-59" value="Bearbeiten" style="rounded=1;whiteSpace=wrap;html=1;" parent="1" vertex="1">
          <mxGeometry x="560" y="320" width="80" height="40" as="geometry" />
        </mxCell>
        <mxCell id="VLzLnDdIR_5NTedfnOc6-61" value="HinzufÃ¼gen" style="rounded=1;whiteSpace=wrap;html=1;" parent="1" vertex="1">
          <mxGeometry x="700" y="320" width="80" height="40" as="geometry" />
        </mxCell>
        <mxCell id="VLzLnDdIR_5NTedfnOc6-62" value="" style="endArrow=classic;html=1;rounded=0;exitX=0.5;exitY=1;exitDx=0;exitDy=0;entryX=0.5;entryY=0;entryDx=0;entryDy=0;" parent="1" source="VLzLnDdIR_5NTedfnOc6-16" target="VLzLnDdIR_5NTedfnOc6-58" edge="1">
          <mxGeometry width="50" height="50" relative="1" as="geometry">
            <mxPoint x="770" y="260" as="sourcePoint" />
            <mxPoint x="820" y="210" as="targetPoint" />
          </mxGeometry>
        </mxCell>
        <mxCell id="VLzLnDdIR_5NTedfnOc6-63" value="" style="endArrow=classic;html=1;rounded=0;entryX=0.5;entryY=0;entryDx=0;entryDy=0;exitX=0.5;exitY=1;exitDx=0;exitDy=0;" parent="1" source="VLzLnDdIR_5NTedfnOc6-16" target="VLzLnDdIR_5NTedfnOc6-61" edge="1">
          <mxGeometry width="50" height="50" relative="1" as="geometry">
            <mxPoint x="800" y="70" as="sourcePoint" />
            <mxPoint x="720" y="220" as="targetPoint" />
          </mxGeometry>
        </mxCell>
        <mxCell id="VLzLnDdIR_5NTedfnOc6-64" value="" style="endArrow=classic;html=1;rounded=0;entryX=0.5;entryY=0;entryDx=0;entryDy=0;exitX=0.5;exitY=1;exitDx=0;exitDy=0;" parent="1" source="VLzLnDdIR_5NTedfnOc6-16" target="VLzLnDdIR_5NTedfnOc6-59" edge="1">
          <mxGeometry width="50" height="50" relative="1" as="geometry">
            <mxPoint x="800" y="70" as="sourcePoint" />
            <mxPoint x="850" y="240" as="targetPoint" />
          </mxGeometry>
        </mxCell>
        <mxCell id="CsrKJYggZknpu8hxHcsT-1" value="Fertig" style="text;html=1;align=center;verticalAlign=middle;whiteSpace=wrap;rounded=0;" vertex="1" parent="1">
          <mxGeometry x="390" y="10" width="60" height="30" as="geometry" />
        </mxCell>
        <mxCell id="CsrKJYggZknpu8hxHcsT-2" value="Actor" style="shape=umlActor;verticalLabelPosition=bottom;verticalAlign=top;html=1;outlineConnect=0;" vertex="1" parent="1">
          <mxGeometry x="-275" y="80" width="30" height="60" as="geometry" />
        </mxCell>
        <mxCell id="CsrKJYggZknpu8hxHcsT-6" value="Actor" style="shape=umlActor;verticalLabelPosition=bottom;verticalAlign=top;html=1;outlineConnect=0;" vertex="1" parent="1">
          <mxGeometry x="-515" y="160" width="30" height="60" as="geometry" />
        </mxCell>
      </root>
    </mxGraphModel>
  </diagram>
</mxfile>
